HIERARCHY
ROOT hip
{
	OFFSET 0.000000 0.000000 0.000000 
	CHANNELS 6 Xposition Yposition Zposition Xrotation Zrotation Yrotation
	JOINT abdomen
	{
		OFFSET 0.000000 3.402643 0.000000 
		CHANNELS 3 Xrotation Zrotation Yrotation
		JOINT chest
		{
			OFFSET 0.000000 8.438565 -0.680529 
			CHANNELS 3 Xrotation Zrotation Yrotation
			JOINT neck
			{
				OFFSET 0.000000 10.207942 -0.272212 
				CHANNELS 3 Xrotation Zrotation Yrotation
				JOINT head
				{
					OFFSET 0.000000 3.130431 0.000000 
					CHANNELS 3 Xrotation Zrotation Yrotation
					End Site
					{
						OFFSET 0.000000 3.130435 0.000000 
					}
				}
			}
			JOINT lCollar
			{
				OFFSET 3.470700 6.669187 -0.816635 
				CHANNELS 3 Yrotation Zrotation Xrotation
				JOINT lShldr
				{
					OFFSET 3.198488 0.000000 0.000000 
					CHANNELS 3 Zrotation Yrotation Xrotation
					JOINT lForeArm
					{
						OFFSET 10.139888 0.000000 0.000000 
						CHANNELS 3 Yrotation Zrotation Xrotation
						JOINT lHand
						{
							OFFSET 8.370511 0.000000 0.000000 
							CHANNELS 3 Zrotation Yrotation Xrotation
							End Site
							{
								OFFSET 4.083176 0.000000 0.000000 
							}
						}
					}
				}
			}
			JOINT rCollar
			{
				OFFSET -3.470700 6.669187 -0.816635 
				CHANNELS 3 Yrotation Zrotation Xrotation
				JOINT rShldr
				{
					OFFSET -3.198488 0.000000 0.000000 
					CHANNELS 3 Zrotation Yrotation Xrotation
					JOINT rForeArm
					{
						OFFSET -10.139888 0.000000 0.000000 
						CHANNELS 3 Yrotation Zrotation Xrotation
						JOINT rHand
						{
							OFFSET -8.370511 0.000000 0.000000 
							CHANNELS 3 Zrotation Yrotation Xrotation
							End Site
							{
								OFFSET -4.083176 0.000000 0.000000 
							}
						}
					}
				}
			}
		}
	}
	JOINT lThigh
	{
		OFFSET 5.308129 -1.633274 1.361059 
		CHANNELS 3 Xrotation Zrotation Yrotation
		JOINT lShin
		{
			OFFSET -2.041588 -20.007561 0.000000 
			CHANNELS 3 Xrotation Zrotation Yrotation
			JOINT lFoot
			{
				OFFSET 0.000000 -19.190928 -1.224953 
				CHANNELS 3 Xrotation Yrotation Zrotation
				End Site
				{
					OFFSET 0.000000 -2.449906 4.627600 
				}
			}
		}
	}
	JOINT rThigh
	{
		OFFSET -5.308129 -1.633274 1.361059 
		CHANNELS 3 Xrotation Zrotation Yrotation
		JOINT rShin
		{
			OFFSET 2.041588 -20.007561 0.000000 
			CHANNELS 3 Xrotation Zrotation Yrotation
			JOINT rFoot
			{
				OFFSET 0.000000 -19.190928 -1.224953 
				CHANNELS 3 Xrotation Yrotation Zrotation
				End Site
				{
					OFFSET 0.000000 -2.449906 4.627600 
				}
			}
		}
	}
}
MOTION
Frames: 8
Frame Time: 0.016667
-1.096602 50.488865 0.397237 2.021640 -0.722206 0.413840 -20.182600 -2.565010 -2.948880 15.640400 2.335140 -1.870560 34.101398 10.861400 -8.910910 21.469601 5.416230 -4.016170 2.000000 -2.000000 0.000000 -85.550102 -0.348819 -162.195999 50.693802 -0.301454 0.105843 -179.897995 -179.867004 -7.038850 -2.000000 2.000000 0.000000 80.399498 -6.959260 -156.304001 -43.916500 0.313333 0.094831 -0.056771 0.027484 -146.785004 -9.857347 -1.250476 -0.103346 40.876835 2.491125 2.857954 -47.978355 11.127739 7.979971 -21.580805 2.523779 -1.915300 44.023464 -1.944800 -3.238626 -34.991501 3.046854 0.138006 
-2.317392 50.489120 1.067263 1.923940 -0.624648 -0.528900 -20.103399 -2.670940 -3.036900 15.660300 2.257370 -1.921700 33.740398 10.882000 -8.729540 21.314501 5.477130 -3.906170 2.000000 -2.000000 0.000000 -85.179398 0.030884 -162.705002 50.547401 -0.301725 0.105621 -179.897995 -179.876999 -7.009570 -2.000000 2.000000 0.000000 81.475304 -6.476690 -158.149994 -42.686001 0.315347 0.092694 -0.056943 0.028454 -147.136993 -9.889712 -1.367867 0.233553 41.359837 2.466823 2.908456 -47.987247 11.436085 8.350789 -21.991352 2.392930 -2.014805 44.770565 -1.894326 -3.277907 -34.194183 2.778795 -0.038371 
-3.552112 50.511681 1.730659 1.845870 -0.780845 -1.578030 -20.155600 -2.740540 -2.916490 15.397400 1.964670 -1.866710 33.403702 11.093600 -8.668410 21.140400 5.557360 -3.870770 2.000000 -2.000000 0.000000 -84.554398 0.567925 -162.735992 50.449699 -0.301904 0.105473 -179.897995 -179.867004 -7.048620 -2.000000 2.000000 0.000000 82.795898 -6.470880 -160.748001 -41.709400 0.316912 0.090968 -0.057294 0.030336 -147.820007 -9.936262 -1.070670 0.825072 41.764061 2.428418 2.925313 -47.678467 11.526312 8.447639 -22.429068 2.602955 -2.267573 45.399982 -1.854944 -3.323517 -33.330849 2.222604 -0.360218 
-4.806280 50.556156 2.433098 1.660260 -0.654022 -2.587430 -20.076200 -2.777830 -2.988280 15.387200 2.071630 -1.906000 33.097099 11.060900 -8.519270 20.994801 5.608730 -3.792650 2.000000 -2.000000 0.000000 -84.242203 0.918529 -163.156006 50.225101 -0.302317 0.105131 -179.897995 -179.876999 -6.960740 -2.000000 2.000000 0.000000 84.047997 -6.171170 -163.716003 -40.478901 0.318842 0.088755 -0.057430 0.031033 -148.074005 -9.656178 -0.971936 1.648645 41.921345 2.426530 2.940955 -47.275719 11.592932 8.477312 -22.629749 2.486708 -2.696834 45.980007 -1.818351 -3.361595 -32.384602 1.596313 -0.711850 
-6.048155 50.600887 3.138460 1.494180 -0.390492 -3.594240 -19.870800 -2.842770 -3.022650 15.670200 2.199020 -1.935860 32.778000 10.919900 -8.450320 20.846201 5.566660 -3.733150 2.000000 -2.000000 0.000000 -83.920197 0.976073 -163.615005 49.863701 -0.302978 0.104577 -179.897995 -179.876999 -7.009570 -2.000000 2.000000 0.000000 85.348701 -5.675360 -166.975998 -39.326599 0.320605 0.086646 -0.057623 0.031999 -148.425995 -9.362465 -1.040271 2.455485 41.949604 2.441044 2.936093 -46.888832 11.675552 8.523547 -22.775585 2.171527 -3.286881 46.412300 -1.795174 -3.389207 -31.438456 0.984958 -1.013684 
-7.304501 50.644329 3.858693 1.474620 -0.214773 -4.771190 -19.920900 -2.893970 -2.992290 15.621200 2.247500 -1.932160 32.735500 10.682000 -8.316340 20.815300 5.520830 -3.652380 2.000000 -2.000000 0.000000 -83.617798 1.375410 -164.074997 49.473099 -0.303688 0.103974 -179.897995 -179.876999 -6.863090 -2.000000 2.000000 0.000000 86.522003 -5.560880 -169.994003 -38.310902 0.322124 0.084758 -0.057739 0.032561 -148.630997 -9.007965 -0.952658 3.362369 41.840580 2.456219 2.924340 -46.668812 11.840683 8.729877 -22.813341 2.073477 -3.731542 46.549820 -1.780271 -3.389235 -30.620277 0.692294 -1.092258 
-8.528977 50.679268 4.605810 1.738280 -0.078089 -6.125430 -20.060200 -2.920260 -2.894850 15.660600 2.140610 -1.882410 32.779400 10.273500 -8.209920 20.801100 5.380900 -3.578240 2.000000 -2.000000 0.000000 -83.383797 1.813720 -164.574005 49.033699 -0.304483 0.103290 -179.899002 -179.878006 -6.452930 -2.000000 2.000000 0.000000 -92.451599 -174.445999 7.262180 -37.539501 0.323256 0.083306 -0.058144 0.034460 -149.324005 -8.883952 -0.896769 4.151672 41.722725 2.459322 2.918053 -46.824326 12.155676 9.178246 -22.935383 2.101658 -3.949224 46.363682 -1.787805 -3.387498 -29.504683 0.985175 -0.793506 
-9.795039 50.712257 5.321843 1.650390 0.107377 -7.252750 -20.176800 -2.920160 -2.922350 15.445100 2.295530 -1.904330 32.940800 9.897640 -8.203860 20.924601 5.246220 -3.567770 2.000000 -2.000000 0.000000 -83.188904 2.291040 -165.093002 48.574699 -0.305307 0.102568 -179.899994 -179.878998 -5.974420 -2.000000 2.000000 0.000000 -91.698997 -174.373001 4.800110 -36.963299 0.324088 0.082211 -0.058985 0.038083 -150.651993 -8.459359 -0.926327 4.948425 41.437675 2.474943 2.909708 -46.721901 13.747199 10.957188 -22.593924 2.083501 -4.080381 46.118088 -1.798472 -3.369220 -28.914145 1.531495 -0.388852 
